<?xml version="1.0" encoding="UTF-8"?>
<!DOCTYPE svg PUBLIC "-//W3C//DTD SVG 1.1//EN" "http://www.w3.org/Graphics/SVG/1.1/DTD/svg11.dtd">
<svg version="1.2" width="211.93mm" height="211.93mm" viewBox="0 0 21193 21193" preserveAspectRatio="xMidYMid" fill-rule="evenodd" stroke-width="28.222" stroke-linejoin="round" xmlns="http://www.w3.org/2000/svg" xmlns:ooo="http://xml.openoffice.org/svg/export" xmlns:xlink="http://www.w3.org/1999/xlink" xmlns:presentation="http://sun.com/xmlns/staroffice/presentation" xmlns:smil="http://www.w3.org/2001/SMIL20/" xmlns:anim="urn:oasis:names:tc:opendocument:xmlns:animation:1.0" xmlns:svg="urn:oasis:names:tc:opendocument:xmlns:svg-compatible:1.0" xml:space="preserve">
 <defs class="ClipPathGroup">
  <clipPath id="presentation_clip_path" clipPathUnits="userSpaceOnUse">
   <rect x="0" y="0" width="21193" height="21193"/>
  </clipPath>
  <clipPath id="presentation_clip_path_shrink" clipPathUnits="userSpaceOnUse">
   <rect x="21" y="21" width="21151" height="21151"/>
  </clipPath>
 </defs>
 <defs class="TextShapeIndex">
  <g ooo:slide="id1" ooo:id-list="id3"/>
 </defs>
 <defs class="EmbeddedBulletChars">
  <g id="bullet-char-template-57356" transform="scale(0.00048828125,-0.00048828125)">
   <path d="M 580,1141 L 1163,571 580,0 -4,571 580,1141 Z"/>
  </g>
  <g id="bullet-char-template-57354" transform="scale(0.00048828125,-0.00048828125)">
   <path d="M 8,1128 L 1137,1128 1137,0 8,0 8,1128 Z"/>
  </g>
  <g id="bullet-char-template-10146" transform="scale(0.00048828125,-0.00048828125)">
   <path d="M 174,0 L 602,739 174,1481 1456,739 174,0 Z M 1358,739 L 309,1346 659,739 1358,739 Z"/>
  </g>
  <g id="bullet-char-template-10132" transform="scale(0.00048828125,-0.00048828125)">
   <path d="M 2015,739 L 1276,0 717,0 1260,543 174,543 174,936 1260,936 717,1481 1274,1481 2015,739 Z"/>
  </g>
  <g id="bullet-char-template-10007" transform="scale(0.00048828125,-0.00048828125)">
   <path d="M 0,-2 C -7,14 -16,27 -25,37 L 356,567 C 262,823 215,952 215,954 215,979 228,992 255,992 264,992 276,990 289,987 310,991 331,999 354,1012 L 381,999 492,748 772,1049 836,1024 860,1049 C 881,1039 901,1025 922,1006 886,937 835,863 770,784 769,783 710,716 594,584 L 774,223 C 774,196 753,168 711,139 L 727,119 C 717,90 699,76 672,76 641,76 570,178 457,381 L 164,-76 C 142,-110 111,-127 72,-127 30,-127 9,-110 8,-76 1,-67 -2,-52 -2,-32 -2,-23 -1,-13 0,-2 Z"/>
  </g>
  <g id="bullet-char-template-10004" transform="scale(0.00048828125,-0.00048828125)">
   <path d="M 285,-33 C 182,-33 111,30 74,156 52,228 41,333 41,471 41,549 55,616 82,672 116,743 169,778 240,778 293,778 328,747 346,684 L 369,508 C 377,444 397,411 428,410 L 1163,1116 C 1174,1127 1196,1133 1229,1133 1271,1133 1292,1118 1292,1087 L 1292,965 C 1292,929 1282,901 1262,881 L 442,47 C 390,-6 338,-33 285,-33 Z"/>
  </g>
  <g id="bullet-char-template-9679" transform="scale(0.00048828125,-0.00048828125)">
   <path d="M 813,0 C 632,0 489,54 383,161 276,268 223,411 223,592 223,773 276,916 383,1023 489,1130 632,1184 813,1184 992,1184 1136,1130 1245,1023 1353,916 1407,772 1407,592 1407,412 1353,268 1245,161 1136,54 992,0 813,0 Z"/>
  </g>
  <g id="bullet-char-template-8226" transform="scale(0.00048828125,-0.00048828125)">
   <path d="M 346,457 C 273,457 209,483 155,535 101,586 74,649 74,723 74,796 101,859 155,911 209,963 273,989 346,989 419,989 480,963 531,910 582,859 608,796 608,723 608,648 583,586 532,535 482,483 420,457 346,457 Z"/>
  </g>
  <g id="bullet-char-template-8211" transform="scale(0.00048828125,-0.00048828125)">
   <path d="M -4,459 L 1135,459 1135,606 -4,606 -4,459 Z"/>
  </g>
  <g id="bullet-char-template-61548" transform="scale(0.00048828125,-0.00048828125)">
   <path d="M 173,740 C 173,903 231,1043 346,1159 462,1274 601,1332 765,1332 928,1332 1067,1274 1183,1159 1299,1043 1357,903 1357,740 1357,577 1299,437 1183,322 1067,206 928,148 765,148 601,148 462,206 346,322 231,437 173,577 173,740 Z"/>
  </g>
 </defs>
 <g>
  <g id="id2" class="Master_Slide">
   <g id="bg-id2" class="Background"/>
   <g id="bo-id2" class="BackgroundObjects"/>
  </g>
 </g>
 <g class="SlideGroup">
  <g>
   <g id="container-id1">
    <g id="id1" class="Slide" clip-path="url(#presentation_clip_path)">
     <g class="Page">
      <g class="Graphic">
       <g id="id3">
        <rect class="BoundingBox" stroke="none" fill="none" x="1811" y="1811" width="17551" height="17551"/>
        <path fill="rgb(88,101,242)" stroke="none" d="M 19350,10586 C 19350,12124 18945,13636 18176,14968 17407,16300 16300,17407 14968,18176 13636,18945 12124,19350 10586,19350 9048,19350 7536,18945 6204,18176 4872,17407 3765,16300 2996,14968 2227,13636 1822,12124 1822,10586 1822,9048 2227,7536 2996,6204 3765,4872 4872,3765 6204,2996 7536,2227 9048,1822 10586,1822 12124,1822 13636,2227 14968,2996 16300,3765 17407,4872 18176,6204 18945,7536 19350,9048 19350,10586 L 19350,10586 Z "/>
        <path fill="rgb(255,255,255)" stroke="none" d="M 11839,7243 C 11837,7242 11836,7242 11834,7242 11829,7242 11825,7243 11821,7246 11816,7248 11813,7252 11811,7256 11811,7256 11810,7256 11810,7256 11729,7404 11654,7557 11588,7713 11256,7662 10921,7637 10586,7637 10251,7637 9916,7662 9584,7713 9518,7556 9442,7404 9359,7256 9356,7252 9353,7248 9349,7246 9344,7244 9339,7242 9334,7242 9333,7242 9331,7242 9330,7243 8714,7349 8115,7535 7547,7796 7546,7796 7545,7797 7544,7797 7540,7799 7537,7802 7535,7806 6399,9504 6088,11159 6240,12794 6241,12798 6242,12802 6244,12806 6246,12809 6249,12812 6252,12815 6474,12979 6705,13131 6944,13269 7417,13542 7919,13760 8440,13921 8443,13922 8446,13922 8448,13922 8453,13922 8458,13921 8463,13918 8466,13916 8469,13914 8471,13911 8584,13757 8688,13598 8783,13433 8831,13351 8876,13267 8919,13183 8921,13179 8922,13175 8922,13170 8922,13165 8920,13161 8918,13156 8915,13152 8912,13149 8908,13146 8906,13145 8905,13145 8903,13144 8667,13054 8439,12945 8220,12819 8216,12816 8212,12813 8210,12809 8207,12805 8206,12800 8206,12795 8206,12790 8207,12785 8210,12781 8211,12777 8214,12775 8217,12772 8263,12738 8309,12702 8353,12666 8354,12665 8355,12664 8356,12663 8360,12661 8365,12660 8370,12660 8374,12660 8377,12661 8381,12662 9815,13317 11368,13317 12785,12662 12789,12660 12793,12660 12797,12660 12802,12660 12806,12661 12811,12663 12812,12664 12813,12665 12814,12666 12858,12702 12904,12738 12951,12772 12954,12775 12957,12778 12959,12781 12961,12785 12962,12790 12962,12795 12962,12800 12961,12805 12959,12809 12956,12813 12953,12816 12949,12819 12943,12822 12937,12825 12932,12829 12718,12952 12495,13058 12264,13144 12263,13145 12261,13145 12260,13146 12256,13149 12252,13152 12250,13156 12247,13161 12246,13165 12246,13170 12246,13175 12247,13179 12249,13183 12290,13262 12333,13341 12378,13418 12475,13587 12582,13752 12696,13911 12699,13914 12702,13917 12705,13919 12709,13921 12714,13923 12719,13923 12722,13923 12725,13922 12727,13921 13250,13761 13753,13542 14227,13269 14466,13131 14697,12979 14918,12815 14921,12813 14924,12810 14926,12807 14928,12803 14929,12799 14930,12795 15112,10905 14624,9262 13634,7807 13634,7806 13633,7805 13633,7805 13631,7802 13628,7799 13625,7797 13624,7796 13624,7796 13623,7796 13055,7535 12455,7349 11839,7243 Z M 9133,11799 C 8701,11799 8345,11402 8345,10916 8345,10429 8694,10032 9133,10032 9575,10032 9927,10432 9920,10916 9920,11402 9571,11799 9133,11799 Z M 12045,11799 C 11613,11799 11257,11402 11257,10916 11257,10429 11606,10032 12045,10032 12487,10032 12839,10432 12832,10916 12832,11402 12487,11799 12045,11799 Z "/>
       </g>
      </g>
     </g>
    </g>
   </g>
  </g>
 </g>
</svg>
